<svg width="17" height="17" viewBox="0 0 17 17" fill="none" xmlns="http://www.w3.org/2000/svg">
<path d="M1 3.50488C1 2.40031 1.89543 1.50488 3 1.50488H14C15.1046 1.50488 16 2.40031 16 3.50488V5.50488H1V3.50488Z" fill="#5F6368"/>
<path fill-rule="evenodd" clip-rule="evenodd" d="M17 5.50488C17 6.05717 16.5523 6.50488 16 6.50488H1C0.447715 6.50488 0 6.05717 0 5.50488V3.50488C0 1.84803 1.34315 0.504883 3 0.504883H14C15.6569 0.504883 17 1.84803 17 3.50488V5.50488ZM3 1.50488C1.89543 1.50488 1 2.40031 1 3.50488V5.50488H16V3.50488C16 2.40031 15.1046 1.50488 14 1.50488H3Z" fill="#5F6368"/>
<path fill-rule="evenodd" clip-rule="evenodd" d="M16 6.50488H1V13.5049C1 14.6095 1.89543 15.5049 3 15.5049H14C15.1046 15.5049 16 14.6095 16 13.5049V6.50488ZM0 5.50488V13.5049C0 15.1617 1.34315 16.5049 3 16.5049H14C15.6569 16.5049 17 15.1617 17 13.5049V5.50488H0Z" fill="#5F6368"/>
<path d="M8.12158 12.7363V13.5054H4.71729V12.8491L6.32715 11.123C6.48893 10.943 6.61654 10.7847 6.70996 10.6479C6.80339 10.509 6.87061 10.3848 6.91162 10.2754C6.95492 10.1637 6.97656 10.0578 6.97656 9.95752C6.97656 9.80713 6.9515 9.67839 6.90137 9.57129C6.85124 9.46191 6.77718 9.3776 6.6792 9.31836C6.5835 9.25911 6.46501 9.22949 6.32373 9.22949C6.17334 9.22949 6.04346 9.26595 5.93408 9.33887C5.82699 9.41178 5.74495 9.51318 5.68799 9.64307C5.6333 9.77295 5.60596 9.91992 5.60596 10.084H4.61816C4.61816 9.78776 4.6888 9.5166 4.83008 9.27051C4.97135 9.02214 5.17074 8.82503 5.42822 8.6792C5.68571 8.53109 5.99105 8.45703 6.34424 8.45703C6.69287 8.45703 6.98682 8.514 7.22607 8.62793C7.46761 8.73958 7.6499 8.90137 7.77295 9.11328C7.89827 9.32292 7.96094 9.57357 7.96094 9.86523C7.96094 10.0293 7.93473 10.1899 7.88232 10.3472C7.82992 10.5021 7.75472 10.6571 7.65674 10.812C7.56104 10.9647 7.44482 11.1196 7.30811 11.2769C7.17139 11.4341 7.01986 11.597 6.85352 11.7656L5.98877 12.7363H8.12158Z" fill="#5F6368"/>
<path d="M9.95512 10.5898H10.4815C10.6501 10.5898 10.7891 10.5614 10.8985 10.5044C11.0079 10.4451 11.0887 10.3631 11.1412 10.2583C11.1958 10.1512 11.2232 10.027 11.2232 9.88574C11.2232 9.75814 11.1981 9.64535 11.148 9.54736C11.1001 9.4471 11.0261 9.36963 10.9258 9.31494C10.8256 9.25798 10.6991 9.22949 10.5464 9.22949C10.4257 9.22949 10.314 9.25342 10.2115 9.30127C10.1089 9.34912 10.0269 9.41634 9.96537 9.50293C9.90385 9.58952 9.87309 9.69434 9.87309 9.81738H8.88529C8.88529 9.54395 8.95821 9.30583 9.10404 9.10303C9.25215 8.90023 9.4504 8.74186 9.69877 8.62793C9.94714 8.514 10.2206 8.45703 10.5191 8.45703C10.8563 8.45703 11.1514 8.51172 11.4043 8.62109C11.6573 8.72819 11.8544 8.88656 11.9956 9.09619C12.1369 9.30583 12.2076 9.56559 12.2076 9.87549C12.2076 10.0327 12.1711 10.1854 12.0982 10.3335C12.0253 10.4793 11.9204 10.6115 11.7837 10.73C11.6493 10.8462 11.4852 10.9396 11.2915 11.0103C11.0979 11.0786 10.8802 11.1128 10.6387 11.1128H9.95512V10.5898ZM9.95512 11.3384V10.8291H10.6387C10.9099 10.8291 11.148 10.8599 11.3531 10.9214C11.5581 10.9829 11.7302 11.0718 11.8692 11.188C12.0082 11.3019 12.113 11.4375 12.1836 11.5947C12.2543 11.7497 12.2896 11.9217 12.2896 12.1108C12.2896 12.3433 12.2452 12.5506 12.1563 12.7329C12.0674 12.9129 11.9421 13.0656 11.7803 13.1909C11.6208 13.3162 11.434 13.4119 11.2198 13.478C11.0056 13.5418 10.772 13.5737 10.5191 13.5737C10.3094 13.5737 10.1032 13.5452 9.90043 13.4883C9.69991 13.429 9.51762 13.3413 9.35355 13.2251C9.19177 13.1066 9.06189 12.9585 8.96391 12.7808C8.8682 12.6007 8.82035 12.3877 8.82035 12.1416H9.80814C9.80814 12.2692 9.84005 12.3831 9.90385 12.4834C9.96765 12.5837 10.0554 12.6623 10.167 12.7192C10.281 12.7762 10.4074 12.8047 10.5464 12.8047C10.7037 12.8047 10.8381 12.7762 10.9497 12.7192C11.0637 12.66 11.1503 12.578 11.2095 12.4731C11.271 12.366 11.3018 12.2419 11.3018 12.1006C11.3018 11.9183 11.2688 11.7725 11.2027 11.6631C11.1366 11.5514 11.042 11.4694 10.919 11.417C10.7959 11.3646 10.6501 11.3384 10.4815 11.3384H9.95512Z" fill="#5F6368"/>
<path d="M4.36804 1.9502L5.28113 4.52832L6.18933 1.9502H7.15125V5.50488H6.41638V4.5332L6.48962 2.85596L5.53015 5.50488H5.02722L4.07019 2.8584L4.14343 4.5332V5.50488H3.41101V1.9502H4.36804Z" fill="white"/>
<path d="M9.99167 4.77246H8.7075L8.46335 5.50488H7.68455L9.00779 1.9502H9.6865L11.0171 5.50488H10.2383L9.99167 4.77246ZM8.90525 4.1792H9.79392L9.34714 2.84863L8.90525 4.1792Z" fill="white"/>
<path d="M12.3585 3.55176L13.0982 1.9502H13.899L12.732 4.21582V5.50488H11.9874V4.21582L10.8204 1.9502H11.6236L12.3585 3.55176Z" fill="white"/>
</svg>
